<?xml version="1.0" encoding="utf-8"?>
<!-- Generator: Adobe Illustrator 21.0.1, SVG Export Plug-In . SVG Version: 6.00 Build 0)  -->
<svg version="1.1" id="Layer_1" xmlns="http://www.w3.org/2000/svg" xmlns:xlink="http://www.w3.org/1999/xlink" x="0px" y="0px"
	 viewBox="0 0 612 792" style="enable-background:new 0 0 612 792;" xml:space="preserve">
<style type="text/css">
	.st0{fill:#47494A;}
	.st1{fill:none;stroke:#000000;stroke-width:0.5;stroke-miterlimit:10;}
	.st2{fill:none;stroke:#000000;stroke-miterlimit:10;}
	.st3{fill:none;}
	.st4{fill:none;stroke:#65B1B8;stroke-miterlimit:10;}
	.st5{fill:#65B1B8;}
	.st6{fill:none;stroke:#BBD7C1;stroke-miterlimit:10;}
	.st7{fill:#BBD7C1;}
	.st8{fill:none;stroke:#EBD3DC;stroke-miterlimit:10;}
	.st9{fill:#EBD3DC;}
	.st10{opacity:0.5;}
	.st11{opacity:0.47;}
	.st12{opacity:0.57;}
	.st13{opacity:0.51;}
	.st14{opacity:0.65;}
	.st15{opacity:0.65;fill:none;stroke:#000000;stroke-miterlimit:10;}
	.st16{opacity:0.65;fill:none;}
	.st17{opacity:0.44;}
	.st18{fill:#FFFFFF;}
	.st19{opacity:0.48;fill:#606161;}
</style>
<g>
	<g>
		<polyline class="st1" points="369.9,522.8 369.4,577.6 369.9,471.9 369.9,463.9 369.9,436.9 277.6,436.9 277.6,471.9 314.2,471.9 
			314.2,521.2 145.4,521.2 145.4,352.5 369.9,352.5 369.9,296.7 145.4,296.7 89.7,296.7 89.7,352.5 89.7,521.2 89.7,577 145.4,577 
			370.3,577.6 		"/>
	</g>
</g>
<polygon class="st3" points="281.2,437.5 281.2,471.2 309.1,437.5 "/>
<g>
	<rect x="285" y="235" width="44.6" height="61.6"/>
	<polygon points="499.4,235 456.3,235 456.3,403 329.6,403 329.6,352 285,352 285,417.5 145,521 213,521 277.3,466.7 277,437 
		296.7,436.7 296.7,437 453.3,437 370,523 369.5,577.4 499,431 497.9,430.9 499.4,430.9 	"/>
</g>
</svg>
